<svg width="448" height="448" viewBox="0 0 448 448" fill="none" xmlns="http://www.w3.org/2000/svg">
  <defs>
    <linearGradient id="cornerGradient" x1="56" y1="56" x2="392" y2="392" gradientUnits="userSpaceOnUse">
      <stop stop-color="#176BFF"/>
      <stop offset="0.52" stop-color="#4E5CFF"/>
      <stop offset="1" stop-color="#9B3DFF"/>
    </linearGradient>
    <linearGradient id="scanLine" x1="56" y1="224" x2="392" y2="224" gradientUnits="userSpaceOnUse">
      <stop stop-color="#176BFF"/>
      <stop offset="0.5" stop-color="#4F5CFF"/>
      <stop offset="1" stop-color="#9B3DFF"/>
    </linearGradient>
  </defs>
  <rect x="73" y="73" width="302" height="302" rx="20" stroke="#FFFFFF" stroke-opacity="0.28" stroke-width="2"/>
  <path d="M224 73V375" stroke="#FFFFFF" stroke-opacity="0.28" stroke-width="2"/>
  <path d="M56 224H392" stroke="url(#scanLine)" stroke-width="4" stroke-linecap="round"/>
  <path d="M56 104V74C56 64.1 64.1 56 74 56H104" stroke="url(#cornerGradient)" stroke-width="7" stroke-linecap="round"/>
  <path d="M344 56H374C383.9 56 392 64.1 392 74V104" stroke="url(#cornerGradient)" stroke-width="7" stroke-linecap="round"/>
  <path d="M392 344V374C392 383.9 383.9 392 374 392H344" stroke="url(#cornerGradient)" stroke-width="7" stroke-linecap="round"/>
  <path d="M104 392H74C64.1 392 56 383.9 56 374V344" stroke="url(#cornerGradient)" stroke-width="7" stroke-linecap="round"/>
</svg>
